<svg width="565" height="78" viewBox="0 0 565 78" fill="none" xmlns="http://www.w3.org/2000/svg">
<g clip-path="url(#clip0_3427_7188)">
<path d="M48.1859 29.0667L0.951172 58.1953V13.086C0.951172 7.36532 7.22395 3.86006 12.0961 6.8582L48.1859 29.0667Z" fill="#00D085"/>
<path d="M55.1819 33.3721C59.3745 35.9521 59.3745 42.0464 55.1819 44.6265L0.951172 77.9993V66.8115L55.1819 33.3721V33.3721Z" fill="#00D085"/>
</g>
<path fill-rule="evenodd" clip-rule="evenodd" d="M174.951 12H183.951V55.136L185.815 57H213.951V66H182.087L174.951 58.864V12Z" fill="white"/>
<path fill-rule="evenodd" clip-rule="evenodd" d="M222.951 12H231.951V55.136L233.815 57H261.951V66H230.087L222.951 58.864V12Z" fill="white"/>
<path fill-rule="evenodd" clip-rule="evenodd" d="M318.951 12H327.951V55.136L329.815 57H357.951V66H326.087L318.951 58.864V12Z" fill="white"/>
<path d="M309.951 21H279.951V34.5H300.951V43.5H279.951V57H309.951V66H270.951V12H309.951V21Z" fill="white"/>
<path d="M165.951 21H159.951V57H165.951V66H144.951V57H150.951V21H144.951V12H165.951V21Z" fill="white"/>
<path d="M99.9512 34.5H126.951V12H135.951V66H126.951V43.5H99.9512V66H90.9512V12H99.9512V34.5Z" fill="white"/>
<path d="M554.27 11.6685C556.027 9.91122 558.877 9.91133 560.634 11.6685C562.392 13.4259 562.392 16.2754 560.634 18.0328L540.975 37.691L563.634 60.3511L557.27 66.7144L534.611 44.0552L511.953 66.7144L505.588 60.3511L528.247 37.691L508.588 18.0328C506.831 16.2754 506.831 13.4259 508.588 11.6685C510.346 9.91134 513.195 9.91122 514.953 11.6685L534.611 31.3267L554.27 11.6685Z" fill="#00D085"/>
<path d="M425.468 13.8544C429.169 8.9392 436.997 11.5569 436.997 17.7099V65.9999H427.997V25.4579L403.406 58.1181L378.815 25.4579V65.9999H369.815V17.7099C369.815 11.5568 377.643 8.93888 381.344 13.8544L403.406 43.1552L425.468 13.8544Z" fill="#00D085"/>
<path d="M466.081 14.1837C468.323 9.06901 475.579 9.06895 477.821 14.1837L500.531 66.0001H490.705L471.951 23.211L453.197 66.0001H443.371L466.081 14.1837Z" fill="#00D085"/>
<circle cx="471.951" cy="52.5" r="6" fill="#00D085"/>
<defs>
<clipPath id="clip0_3427_7188">
<rect width="60" height="75" fill="white" transform="translate(0.951172 3)"/>
</clipPath>
</defs>
</svg>
