<svg width="565" height="78" viewBox="0 0 565 78" fill="none" xmlns="http://www.w3.org/2000/svg">
<g clip-path="url(#clip0_3427_7188)">
<path d="M48.1957 29.0667L0.960938 58.1953V13.086C0.960938 7.36532 7.23372 3.86006 12.1058 6.8582L48.1957 29.0667Z" fill="#00D085"/>
<path d="M55.1916 33.3721C59.3843 35.9521 59.3843 42.0464 55.1917 44.6265L0.960938 77.9993V66.8115L55.1916 33.3721V33.3721Z" fill="#00D085"/>
</g>
<path fill-rule="evenodd" clip-rule="evenodd" d="M174.961 12H183.961V55.136L185.825 57H213.961V66H182.097L174.961 58.864V12Z" fill="#06143F"/>
<path fill-rule="evenodd" clip-rule="evenodd" d="M222.961 12H231.961V55.136L233.825 57H261.961V66H230.097L222.961 58.864V12Z" fill="#06143F"/>
<path fill-rule="evenodd" clip-rule="evenodd" d="M318.961 12H327.961V55.136L329.825 57H357.961V66H326.097L318.961 58.864V12Z" fill="#06143F"/>
<path d="M309.961 21H279.961V34.5H300.961V43.5H279.961V57H309.961V66H270.961V12H309.961V21Z" fill="#06143F"/>
<path d="M165.961 21H159.961V57H165.961V66H144.961V57H150.961V21H144.961V12H165.961V21Z" fill="#06143F"/>
<path d="M99.9609 34.5H126.961V12H135.961V66H126.961V43.5H99.9609V66H90.9609V12H99.9609V34.5Z" fill="#06143F"/>
<path d="M554.28 11.6685C556.037 9.91122 558.887 9.91133 560.644 11.6685C562.401 13.4259 562.401 16.2754 560.644 18.0328L540.985 37.691L563.644 60.3511L557.28 66.7144L534.621 44.0552L511.962 66.7144L505.598 60.3511L528.256 37.691L508.598 18.0328C506.841 16.2754 506.841 13.4259 508.598 11.6685C510.356 9.91134 513.205 9.91122 514.962 11.6685L534.621 31.3267L554.28 11.6685Z" fill="#00D085"/>
<path d="M425.478 13.8544C429.179 8.9392 437.006 11.5569 437.006 17.7099V65.9999H428.006V25.4579L403.416 58.1181L378.825 25.4579V65.9999H369.825V17.7099C369.825 11.5568 377.653 8.93888 381.354 13.8544L403.416 43.1552L425.478 13.8544Z" fill="#00D085"/>
<path d="M466.09 14.1837C468.332 9.06901 475.589 9.06895 477.831 14.1837L500.541 66.0001H490.714L471.96 23.211L453.207 66.0001H443.38L466.09 14.1837Z" fill="#00D085"/>
<circle cx="471.961" cy="52.5" r="6" fill="#00D085"/>
<defs>
<clipPath id="clip0_3427_7188">
<rect width="60" height="75" fill="white" transform="translate(0.960938 3)"/>
</clipPath>
</defs>
</svg>
