<svg width="64" height="64" viewBox="0 0 64 64" fill="none" xmlns="http://www.w3.org/2000/svg">
<g id="Technologies">
<g id="docker-w">
<g id="Group 175502">
<path id="Vector" d="M63.3688 26.3365C63.1952 26.1987 61.5749 24.9752 58.1577 24.9752C57.2554 24.9791 56.3549 25.0565 55.4652 25.2066C54.8038 20.6734 51.0559 18.4632 50.8879 18.3641L49.9703 17.8349L49.3667 18.7058C48.611 19.8756 48.0592 21.1652 47.7353 22.5198C47.1235 25.1075 47.4956 27.538 48.8101 29.6159C47.2228 30.5004 44.6764 30.7182 44.1611 30.7374H2.00337C0.90222 30.739 0.0086896 31.6288 0.00268854 32.7299C-0.0464843 36.4231 0.579238 40.0943 1.84904 43.5628C3.3013 47.3713 5.46186 50.1766 8.27277 51.8935C11.4226 53.8225 16.5401 54.9248 22.3409 54.9248C24.9615 54.9331 27.5772 54.6959 30.1536 54.2166C33.7351 53.559 37.1814 52.3072 40.3499 50.5128C42.9608 49.0009 45.3105 47.0775 47.3083 44.8166C50.6483 41.0357 52.638 36.8248 54.1178 33.0826H54.7075C58.3644 33.0826 60.6132 31.6192 61.8532 30.393C62.6773 29.6109 63.3207 28.6581 63.7382 27.6014L64 26.8353L63.3688 26.3365Z" fill="white"/>
<path id="Vector_2" d="M5.9111 29.5029H11.5604C11.8329 29.5029 12.0537 29.282 12.0537 29.0097V23.9776C12.0552 23.7051 11.8356 23.4831 11.5632 23.4815C11.5623 23.4815 11.5613 23.4815 11.5604 23.4815H5.9111C5.63863 23.4815 5.41785 23.7024 5.41785 23.9748V23.9776V29.0096C5.41785 29.282 5.63863 29.5029 5.9111 29.5029Z" fill="white"/>
<path id="Vector_3" d="M13.6961 29.5029H19.3454C19.6179 29.5029 19.8386 29.282 19.8386 29.0097V23.9776C19.8402 23.7051 19.6205 23.4831 19.3481 23.4815C19.3472 23.4815 19.3462 23.4815 19.3453 23.4815H13.696C13.422 23.4815 13.2 23.7036 13.2 23.9776V29.0096C13.2016 29.2825 13.4232 29.5029 13.6961 29.5029Z" fill="white"/>
<path id="Vector_4" d="M21.5995 29.5029H27.2489C27.5213 29.5029 27.7421 29.282 27.7421 29.0097V23.9776C27.7436 23.7051 27.524 23.4831 27.2516 23.4815C27.2507 23.4815 27.2497 23.4815 27.2488 23.4815H21.5995C21.327 23.4815 21.1062 23.7024 21.1062 23.9748V23.9776V29.0096C21.1063 29.282 21.3272 29.5029 21.5995 29.5029Z" fill="white"/>
<path id="Vector_5" d="M29.4095 29.5029H35.0588C35.3317 29.5029 35.5533 29.2826 35.5549 29.0097V23.9776C35.5549 23.7036 35.3328 23.4815 35.0588 23.4815H29.4095C29.137 23.4815 28.9163 23.7024 28.9163 23.9748V23.9776V29.0096C28.9163 29.282 29.1371 29.5029 29.4095 29.5029Z" fill="white"/>
<path id="Vector_6" d="M13.6961 22.2635H19.3454C19.6182 22.262 19.8387 22.0403 19.8387 21.7675V16.7355C19.8387 16.463 19.6178 16.2422 19.3454 16.2422H13.6961C13.4233 16.2422 13.2016 16.4625 13.2001 16.7355V21.7675C13.2016 22.0408 13.4227 22.262 13.6961 22.2635Z" fill="white"/>
<path id="Vector_7" d="M21.5996 22.2635H27.2489C27.5217 22.262 27.7421 22.0403 27.7421 21.7675V16.7355C27.7421 16.463 27.5213 16.2422 27.2489 16.2422H21.5996C21.3271 16.2422 21.1063 16.4631 21.1063 16.7355V21.7675C21.1063 22.0403 21.3268 22.262 21.5996 22.2635Z" fill="white"/>
<path id="Vector_8" d="M29.4095 22.2635H35.0588C35.3322 22.262 35.5533 22.0408 35.5549 21.7675V16.7355C35.5533 16.4625 35.3317 16.2422 35.0588 16.2422H29.4095C29.137 16.2422 28.9163 16.4631 28.9163 16.7355V21.7675C28.9163 22.0403 29.1367 22.262 29.4095 22.2635Z" fill="white"/>
<path id="Vector_9" d="M29.4095 15.0214H35.0588C35.3317 15.0214 35.5533 14.801 35.5549 14.5281V9.49325C35.5533 9.22034 35.3317 9 35.0588 9H29.4095C29.137 9 28.9163 9.22079 28.9163 9.49325V14.528C28.9163 14.8005 29.1371 15.0214 29.4095 15.0214Z" fill="white"/>
<path id="Vector_10" d="M37.2883 29.5029H42.9376C43.2105 29.5029 43.4321 29.2826 43.4336 29.0097V23.9776C43.4336 23.7036 43.2116 23.4815 42.9376 23.4815H37.2883C37.0159 23.4815 36.795 23.7024 36.795 23.9748V23.9776V29.0096C36.795 29.282 37.0159 29.5029 37.2883 29.5029Z" fill="white"/>
</g>
</g>
</g>
</svg>
