<svg width="64" height="64" viewBox="0 0 64 64" fill="none" xmlns="http://www.w3.org/2000/svg">
<g id="Technologies">
<g id="figma-w">
<g id="Group">
<path id="Vector" d="M31.5 32C31.5 29.171 32.6326 26.4579 34.6486 24.4575C36.6646 22.4571 39.3989 21.3333 42.25 21.3333C45.1011 21.3333 47.8354 22.4571 49.8514 24.4575C51.8674 26.4579 53 29.171 53 32C53 34.829 51.8674 37.5421 49.8514 39.5425C47.8354 41.5429 45.1011 42.6667 42.25 42.6667C39.3989 42.6667 36.6646 41.5429 34.6486 39.5425C32.6326 37.5421 31.5 34.829 31.5 32Z" fill="white" fill-opacity="0.6"/>
<path id="Vector_2" d="M10 53.3333C10 50.5044 11.1326 47.7913 13.1486 45.7909C15.1646 43.7905 17.8989 42.6667 20.75 42.6667H31.5V53.3333C31.5 56.1623 30.3674 58.8754 28.3514 60.8758C26.3354 62.8762 23.6011 64 20.75 64C17.8989 64 15.1646 62.8762 13.1486 60.8758C11.1326 58.8754 10 56.1623 10 53.3333H10Z" fill="white" fill-opacity="0.8"/>
<path id="Vector_3" d="M31.5 0V21.3333H42.25C45.1011 21.3333 47.8354 20.2095 49.8514 18.2091C51.8674 16.2087 53 13.4956 53 10.6667C53 7.83769 51.8674 5.12458 49.8514 3.12419C47.8354 1.12381 45.1011 0 42.25 0L31.5 0Z" fill="white" fill-opacity="0.8"/>
<path id="Vector_4" d="M10 10.6667C10 13.4956 11.1326 16.2087 13.1486 18.2091C15.1646 20.2095 17.8989 21.3333 20.75 21.3333H31.5V0H20.75C17.8989 0 15.1646 1.12381 13.1486 3.12419C11.1326 5.12458 10 7.83769 10 10.6667H10Z" fill="white"/>
<path id="Vector_5" d="M10 32C10 34.829 11.1326 37.5421 13.1486 39.5425C15.1646 41.5429 17.8989 42.6667 20.75 42.6667H31.5V21.3333H20.75C17.8989 21.3333 15.1646 22.4571 13.1486 24.4575C11.1326 26.4579 10 29.171 10 32H10Z" fill="white" fill-opacity="0.6"/>
</g>
</g>
</g>
</svg>
