<svg width="64" height="64" viewBox="0 0 64 64" fill="none" xmlns="http://www.w3.org/2000/svg">
<g id="Technologies">
<g id="git-w" clip-path="url(#clip0_567_790)">
<g id="git">
<path id="Vector" d="M62.793 29.1484L34.8501 1.20701C33.2419 -0.402234 30.6317 -0.402234 29.0214 1.20701L23.219 7.00953L30.5797 14.3703C32.2903 13.7923 34.2518 14.18 35.6152 15.5435C36.9853 16.9158 37.3704 18.894 36.7782 20.61L43.872 27.7041C45.5882 27.1127 47.5684 27.4952 48.9393 28.8684C50.8549 30.7833 50.8549 33.887 48.9393 35.8032C47.0231 37.7198 43.9194 37.7198 42.0019 35.8032C40.5609 34.3609 40.2051 32.2445 40.9344 30.4691L34.3191 23.8538L34.3183 41.2631C34.7978 41.5002 35.2358 41.8133 35.6152 42.1906C37.5311 44.1055 37.5311 47.2095 35.6152 49.1272C33.6991 51.0428 30.5938 51.0428 28.6802 49.1272C26.7645 47.2095 26.7645 44.1057 28.6802 42.1909C29.1395 41.7313 29.685 41.3676 30.2856 41.1205V23.549C29.6842 23.3035 29.1382 22.9395 28.6802 22.4788C27.2287 21.0293 26.8797 18.8995 27.6234 17.1173L20.3675 9.86052L1.20751 29.0192C-0.402502 30.6299 -0.402502 33.2403 1.20751 34.8498L29.151 62.7917C30.7597 64.4012 33.3693 64.4012 34.9801 62.7917L62.7927 34.9796C64.4022 33.3696 64.4022 30.7579 62.7927 29.1484" fill="white"/>
</g>
</g>
</g>
<defs>
<clipPath id="clip0_567_790">
<rect width="64" height="64" fill="white"/>
</clipPath>
</defs>
</svg>
