<svg width="65" height="64" viewBox="0 0 65 64" fill="none" xmlns="http://www.w3.org/2000/svg">
<g id="Technologies">
<g id="jira-w">
<g id="Group 1449235904">
<path id="Vector" d="M59.4687 3.00027H31.0712C31.0712 9.94722 36.8163 15.6017 43.8748 15.6017H49.1275V20.5292C49.1275 27.4762 54.8726 33.1308 61.931 33.1308V5.42365C61.931 4.0504 60.8642 3.00027 59.4687 3.00027Z" fill="white"/>
<path id="Vector_2" d="M45.4329 16.8936H17.0353C17.0353 23.8404 22.7805 29.4951 29.8388 29.4951H35.0917V34.5033C35.0917 41.4504 40.8368 47.1047 47.8952 47.1047V19.317C47.8952 18.0245 46.8281 16.8936 45.4329 16.8936Z" fill="white"/>
<path id="Vector_3" d="M31.3981 30.8696H3.00036C3.00036 37.8167 8.74553 43.471 15.8039 43.471H21.0566V48.3986C21.0566 55.3457 26.8018 61.0001 33.8602 61.0001V33.2931C33.8602 31.92 32.7112 30.8696 31.3981 30.8696Z" fill="white"/>
</g>
</g>
</g>
</svg>
