<svg width="64" height="64" viewBox="0 0 64 64" fill="none" xmlns="http://www.w3.org/2000/svg">
<g id="Technologies">
<g id="json-w" clip-path="url(#clip0_567_790)">
<g id="Group">
<path id="Vector" fill-rule="evenodd" clip-rule="evenodd" d="M31.946 47.6395C46.1052 66.9415 59.962 42.2519 59.9416 27.4047C59.9175 9.85026 42.1252 0.0390625 31.9344 0.0390625C15.5776 0.0390625 0 13.5575 0 32.0535C0 52.6119 17.856 63.9995 31.9344 63.9995C28.7486 63.5407 18.132 61.2659 17.9892 36.8127C17.8933 20.2739 23.3844 13.6663 31.9112 16.5731C32.1022 16.6439 41.3168 20.2789 41.3168 32.1535C41.3168 43.9775 31.946 47.6395 31.946 47.6395Z" fill="url(#paint0_linear_567_790)"/>
<path id="Vector_2" fill-rule="evenodd" clip-rule="evenodd" d="M31.9293 16.5605C22.5733 13.3357 11.1121 21.0469 11.1121 36.4921C11.1121 61.7113 29.8005 64.0001 32.0657 64.0001C48.4225 64.0001 64.0001 50.4817 64.0001 31.9857C64.0001 11.4273 46.1441 0.0396517 32.0657 0.0396517C35.9649 -0.500348 53.0821 4.25965 53.0821 27.6545C53.0821 42.9109 40.3009 51.2165 31.9881 47.6677C31.7971 47.5968 22.5825 43.9619 22.5825 32.0873C22.5825 20.2633 31.9293 16.5605 31.9293 16.5605Z" fill="url(#paint1_linear_567_790)"/>
</g>
</g>
</g>
<defs>
<linearGradient id="paint0_linear_567_790" x1="9.46508" y1="9.46468" x2="54.5464" y2="54.5603" gradientUnits="userSpaceOnUse">
<stop stop-color="white"/>
<stop offset="1" stop-color="white" stop-opacity="0"/>
</linearGradient>
<linearGradient id="paint1_linear_567_790" x1="54.5528" y1="54.5546" x2="9.47146" y2="9.46295" gradientUnits="userSpaceOnUse">
<stop stop-color="white"/>
<stop offset="1" stop-color="white" stop-opacity="0"/>
</linearGradient>
<clipPath id="clip0_567_790">
<rect width="64" height="64" fill="white"/>
</clipPath>
</defs>
</svg>
