<svg width="64" height="64" viewBox="0 0 64 64" fill="none" xmlns="http://www.w3.org/2000/svg">
<g id="Technologies">
<g id="mysql-w">
<g id="Group 1449235891">
<path id="Subtract" d="M32 61C35.3085 61 38.4873 60.4451 41.4492 59.4248C40.8712 58.8852 40.3529 58.2594 39.7666 57.8154C37.8674 56.3793 35.5923 54.222 34.2832 52.1523C33.7354 50.9645 33.1429 49.8257 32.5527 48.6436V48.5586C32.3008 48.8962 32.3858 49.2315 32.2598 49.7422C31.712 51.8549 32.1328 54.2647 30.2354 55.0244C28.0849 55.9141 26.4806 53.5881 25.8076 52.5312C23.6562 49.0225 23.0668 43.104 24.584 38.3262C24.9209 37.2683 24.9673 35.9999 25.5557 35.1553C25.4286 34.3919 24.8396 34.1828 24.499 33.7148C23.9091 32.9155 23.4035 31.9845 22.9414 31.0967C22.054 29.3623 21.4229 27.2897 20.749 25.4297C20.4526 24.6701 20.3677 23.9075 20.0723 23.1885C19.5686 22.0909 18.6391 20.9897 17.9229 20.0186C16.9525 18.6229 14.127 15.9178 15.2656 13.168C17.0378 8.81372 23.2339 12.1115 25.6387 13.6328C26.2279 14.0131 26.9043 14.817 27.5801 15.1143C28.6341 15.1558 29.6873 15.238 30.7432 15.2822C32.7234 15.7474 34.5783 16.1278 36.1387 17.0166C43.3915 21.2877 48.1126 25.6401 52.458 32.8291C53.386 34.3522 53.8508 35.9997 54.6094 37.6475C55.6408 40.055 56.7982 42.5796 57.9941 44.8662C59.9169 40.9889 61 36.6212 61 32C61 15.9837 48.0163 3 32 3C15.9837 3 3 15.9837 3 32C3 48.0163 15.9837 61 32 61ZM41.7324 59.3242C47.8071 57.1603 52.9482 53.03 56.3877 47.6973C55.8032 46.5882 55.2952 45.4105 54.7764 44.2451C53.8925 42.2177 52.7948 40.1033 51.9092 38.0273C51.4461 37.0147 51.2338 36.1254 50.7266 35.1543C47.6497 29.194 43.0952 24.2039 37.5732 20.6943C35.7588 19.5525 33.7353 18.4955 31.502 17.7773C30.2361 17.3952 28.7169 17.6061 27.3682 17.3125H26.4805C25.7228 17.0992 25.09 16.2967 24.499 15.873C23.1936 14.9869 21.8865 14.3911 20.3252 13.7588C19.7783 13.5049 18.216 12.9147 17.6709 13.3799C17.3331 13.4648 17.162 13.592 17.0791 13.9307C16.7431 14.4364 17.038 15.1979 17.2471 15.6641C17.8805 17.0155 18.7656 17.8191 19.5684 18.9609C20.2828 19.9736 21.1704 21.1156 21.6768 22.2168C22.7695 24.5834 23.2785 27.2056 24.291 29.5723C24.6667 30.4621 25.2607 31.4752 25.8076 32.2783C26.2707 32.9152 27.1132 33.3759 27.3682 34.1826C27.8762 35.0282 26.6072 37.8189 26.3135 38.7051C25.2153 42.1725 25.4284 46.9922 26.6934 49.998C27.2006 51.178 27.6649 52.5731 29.0127 52.9111C29.0971 52.8274 29.0125 52.8712 29.1797 52.8271C29.477 50.5006 29.5614 48.2597 30.3633 46.4395C30.8265 45.3017 31.7516 44.4973 32.3857 43.5684C32.8081 43.8215 32.8083 44.5849 33.0605 45.0898C33.6092 46.3996 34.1984 47.8358 34.875 49.1494C36.2634 51.855 37.8253 54.478 39.5957 56.8447C40.1738 57.6688 40.9889 58.5736 41.7324 59.3242ZM29.7705 25.5107C29.4336 24.8333 29.1385 24.159 28.7988 23.4824C28.3808 22.8917 27.7897 22.4228 27.4492 21.748H27.3672V21.6631C27.8761 21.5375 28.3806 21.4512 29.0957 21.4512C29.4336 21.7899 29.9831 22.001 30.2354 22.4229C30.4479 22.72 30.4874 23.0135 30.7422 23.3115C30.7422 24.3278 30.4472 25.0038 29.8525 25.4248C29.8499 25.4277 29.8105 25.4706 29.7705 25.5107Z" fill="white"/>
</g>
</g>
</g>
</svg>
