<svg width="64" height="64" viewBox="0 0 64 64" fill="none" xmlns="http://www.w3.org/2000/svg">
<g id="Technologies">
<g id="python">
<g id="g1894">
<path id="path8615" d="M31.7837 2C16.552 2 17.5032 8.6054 17.5032 8.6054L17.5201 15.4485H32.0554V17.5032H11.7468C11.7468 17.5032 2 16.3978 2 31.7667C2 47.1357 10.5072 46.5907 10.5072 46.5907H15.5844V39.4589C15.5844 39.4589 15.3107 30.9517 23.9557 30.9517C32.6008 30.9517 38.3721 30.9517 38.3721 30.9517C38.3721 30.9517 46.4718 31.0826 46.4718 23.1237C46.4718 15.1648 46.4718 9.96383 46.4718 9.96383C46.4718 9.96383 47.7016 2 31.7837 2ZM23.7689 6.6017C25.2151 6.6017 26.3839 7.77054 26.3839 9.21669C26.3839 10.6628 25.2151 11.8317 23.7689 11.8317C22.3228 11.8317 21.1539 10.6628 21.1539 9.21669C21.1539 7.77054 22.3228 6.6017 23.7689 6.6017Z" fill="white"/>
<path id="path8620" d="M32.2162 61.6875C47.448 61.6875 46.4968 55.0821 46.4968 55.0821L46.4798 48.239H31.9445V46.1844H52.2532C52.2532 46.1844 61.9999 47.2897 61.9999 31.9208C61.9999 16.5518 53.4927 17.0968 53.4927 17.0968H48.4156V24.2286C48.4156 24.2286 48.6892 32.7358 40.0442 32.7358C31.3992 32.7358 25.6278 32.7358 25.6278 32.7358C25.6278 32.7358 17.5281 32.6049 17.5281 40.5638C17.5281 48.5227 17.5281 53.7237 17.5281 53.7237C17.5281 53.7237 16.2984 61.6875 32.2162 61.6875ZM40.231 57.0858C38.7848 57.0858 37.616 55.917 37.616 54.4708C37.616 53.0247 38.7848 51.8558 40.231 51.8558C41.6771 51.8558 42.846 53.0247 42.846 54.4708C42.846 55.917 41.6771 57.0858 40.231 57.0858Z" fill="white"/>
</g>
</g>
</g>
</svg>
