<svg width="64" height="64" viewBox="0 0 64 64" fill="none" xmlns="http://www.w3.org/2000/svg">
<g id="Technologies">
<g id="rest-w">
<g id="Group">
<path id="Vector" d="M32.0014 2.67179C15.6458 2.67179 2.3125 16.0051 2.3125 32.3607C2.3125 48.894 15.6458 62.2274 32.0014 62.2274C48.5347 62.2274 61.8681 48.894 61.8681 32.3607C61.8681 16.0051 48.5347 2.67179 32.0014 2.67179ZM32.8903 54.9385C30.0458 54.9385 27.7347 52.6273 27.7347 49.7829C27.7347 48.3607 28.2681 47.1162 29.1569 46.2274L26.3125 41.0718C26.1347 41.0718 25.9569 41.0718 25.7792 41.0718C24.5347 41.0718 23.4681 40.7162 22.5792 40.0051L19.9125 42.6718C20.0903 43.9162 19.5569 45.3385 18.4903 46.0496C17.0681 46.9385 14.9347 46.5829 14.0458 45.1607C13.1569 43.7385 13.5125 41.6051 14.9347 40.7162C16.0014 40.0051 17.0681 40.0051 18.1347 40.5385L20.9792 38.2274C20.8014 37.694 20.6236 37.1607 20.4458 36.6273L13.5125 35.5607C12.6236 37.3385 11.0236 38.5829 8.89028 38.5829C6.04583 38.5829 3.73472 36.2718 3.73472 33.4273C3.73472 30.5829 6.04583 28.2718 8.89028 28.2718C11.3792 28.2718 13.5125 30.2273 13.8681 32.7162L20.8014 33.7829C20.9792 33.4273 20.9792 33.2496 21.1569 33.0718L15.8236 27.7385C15.1125 28.094 14.4014 28.2718 13.6903 28.2718C10.8458 28.2718 8.53472 25.9607 8.53472 23.1162C8.53472 20.2718 10.8458 17.9607 13.6903 17.9607C15.4681 17.9607 17.0681 19.0274 17.9569 20.4496L25.9569 18.494C26.1347 15.8273 28.2681 13.694 30.9347 13.694C33.7792 13.694 36.0903 16.0051 36.0903 18.8496C36.0903 21.694 33.9569 23.8273 31.1125 24.0051L28.9792 31.4718C30.5792 32.5385 31.4681 34.1385 31.4681 36.094C31.4681 37.8718 30.5792 39.6496 29.1569 40.5385L31.8236 45.3385C32.1792 45.3385 32.5347 45.1607 32.8903 45.1607C35.7347 45.1607 38.0458 47.4718 38.0458 50.3162C38.0458 52.6273 35.7347 54.9385 32.8903 54.9385Z" fill="white"/>
<path id="Vector_2" d="M26.6681 20.9843L18.6681 22.9398C18.6681 23.8287 18.3126 24.7176 17.957 25.4287L23.2904 30.762C24.0015 30.4065 25.0681 30.0509 25.957 30.0509H26.1348L28.2681 22.762C27.7348 22.4065 27.0237 21.6954 26.6681 20.9843Z" fill="white"/>
</g>
</g>
</g>
</svg>
