<svg width="64" height="64" viewBox="0 0 64 64" fill="none" xmlns="http://www.w3.org/2000/svg">
  <path d="M8.80005 30.3415L30.6732 8.4683C33.6933 5.44823 38.5898 5.44823 41.6097 8.4683C44.6299 11.4883 44.6299 16.3848 41.6097 19.4049L25.091 35.9237" stroke="#00D085" stroke-width="3.46667" stroke-linecap="round"/>
  <path d="M25.3188 35.6959L41.6097 19.4049C44.6299 16.3848 49.5264 16.3848 52.5466 19.4049L52.6603 19.5188C55.6805 22.5388 55.6805 27.4353 52.6603 30.4554L32.8781 50.2378C31.8714 51.2444 31.8714 52.8765 32.8781 53.8831L36.9401 57.9453" stroke="#00D085" stroke-width="3.46667" stroke-linecap="round"/>
  <path d="M36.1416 13.9366L19.9645 30.1136C16.9444 33.1337 16.9444 38.0301 19.9645 41.0503C22.9846 44.0701 27.881 44.0701 30.9011 41.0503L47.0782 24.8732" stroke="#00D085" stroke-width="3.46667" stroke-linecap="round"/>
</svg>
