<svg width="64" height="64" viewBox="0 0 64 64" fill="none" xmlns="http://www.w3.org/2000/svg">
  <path d="M31.784 2C16.552 2 17.503 8.605 17.503 8.605L17.52 15.449H32.055V17.503H11.747C11.747 17.503 2 16.398 2 31.767C2 47.136 10.507 46.591 10.507 46.591H15.584V39.459C15.584 39.459 15.311 30.952 23.956 30.952C32.601 30.952 38.372 30.952 38.372 30.952C38.372 30.952 46.472 31.083 46.472 23.124C46.472 15.165 46.472 9.964 46.472 9.964C46.472 9.964 47.702 2 31.784 2Z" fill="#3776AB"/>
  <path d="M32.216 61.688C47.448 61.688 46.497 55.082 46.497 55.082L46.48 48.239H31.945V46.184H52.253C52.253 46.184 62 47.29 62 31.921C62 16.552 53.493 17.097 53.493 17.097H48.416V24.229C48.416 24.229 48.689 32.736 40.044 32.736C31.399 32.736 25.628 32.736 25.628 32.736C25.628 32.736 17.528 32.605 17.528 40.564C17.528 48.523 17.528 53.724 17.528 53.724C17.528 53.724 16.298 61.688 32.216 61.688Z" fill="#FFD43B"/>
  <circle cx="23.769" cy="9.217" r="2.615" fill="#3776AB"/>
  <circle cx="40.231" cy="54.471" r="2.615" fill="#FFD43B"/>
</svg>
